<svg width="1440" height="467" viewBox="0 0 1440 467" fill="none" xmlns="http://www.w3.org/2000/svg">
<g clip-path="url(#clip0_138_3435)">
<path d="M-69.8745 435.417C-97.8099 419.066 -4.25269 340.531 19.9931 363.502C50.3004 392.215 52.1452 499.693 116.713 458.599C181.281 417.504 189.978 391.952 215.278 399.065C240.578 406.177 272.993 458.599 306.99 458.599C340.987 458.599 482.772 367.19 507.809 377.991C532.845 388.791 584.763 446.218 622.449 435.417C660.136 424.617 687.281 351.121 730.238 377.991C764.604 399.486 902.331 440.686 966.898 458.599V634.304L-69.8745 648.792V435.417Z" fill="#4C4F71"/>
<path d="M-63.4346 384.556C-25.7481 368.224 -9.40853 398.781 20.8988 398.781C51.206 398.781 60.43 384.556 83.6217 384.556C95.356 384.556 145.317 425.054 205.641 434.607C293.401 384.556 333.74 422.396 352.698 416.694C412.258 398.781 417.529 267.859 417.529 179.348H426.489C426.489 274.971 447.309 427.495 537.44 416.694C597.028 409.554 582.77 398.781 616.766 398.781C650.763 398.781 671.056 416.694 712.432 416.694C753.808 416.694 779.372 384.556 829.708 384.556L830.916 384.556C880.952 384.554 1044.96 461.358 1063 493.5L955.154 583.443H-63.4346V384.556Z" fill="url(#paint0_linear_138_3435)"/>
<path d="M422.306 75.0312L495.341 201.476L448.297 163.542L422.306 201.476L395.262 163.542L349.271 201.476L422.306 75.0312Z" fill="#9A9DBB"/>
<path d="M422.306 75.0312L495.341 201.476L448.297 163.542L422.306 201.476L422.306 75.0312Z" fill="#70749F"/>
<path d="M-1.50254 45L1.87008 55.3753H12.7841L3.95448 61.7876L7.3271 72.1629L-1.50254 65.7506L-10.3322 72.1629L-6.95956 61.7876L-15.7892 55.3753H-4.87516L-1.50254 45Z" fill="#B9BBD0"/>
<path d="M802.299 263.645L805.672 274.02L816.586 274.02L807.756 280.432L811.129 290.807L802.299 284.395L793.47 290.807L796.842 280.432L788.013 274.02L798.927 274.02L802.299 263.645Z" fill="#B9BBD0"/>
<path d="M261.512 248.893L264.885 259.268H275.799L266.969 265.68L270.342 276.055L261.512 269.643L252.682 276.055L256.055 265.68L247.225 259.268H258.139L261.512 248.893Z" fill="#B9BBD0"/>
<path d="M-1.50254 248.893L1.87008 259.268H12.7841L3.95448 265.68L7.3271 276.055L-1.50254 269.643L-10.3322 276.055L-6.95956 265.68L-15.7892 259.268H-4.87516L-1.50254 248.893Z" fill="#B9BBD0"/>
<path d="M898.493 45L899.676 48.6405H903.505L900.407 50.8904L901.591 54.5308L898.493 52.2809L895.394 54.5308L896.578 50.8904L893.48 48.6405H897.309L898.493 45Z" fill="#B9BBD0"/>
<path d="M880.572 108.223L881.755 111.863H885.584L882.486 114.113L883.67 117.753L880.572 115.504L877.473 117.753L878.657 114.113L875.559 111.863H879.388L880.572 108.223Z" fill="#B9BBD0"/>
<path d="M208.54 168.811L209.724 172.451L213.553 172.451L210.455 174.701L211.638 178.341L208.54 176.091L205.442 178.341L206.626 174.701L203.528 172.451L207.357 172.451L208.54 168.811Z" fill="#B9BBD0"/>
<path d="M628.625 293.676L629.809 297.316H633.638L630.54 299.566L631.723 303.207L628.625 300.957L625.527 303.207L626.711 299.566L623.612 297.316H627.442L628.625 293.676Z" fill="#B9BBD0"/>
<path d="M761.978 147.736L763.161 151.377H766.991L763.893 153.627L765.076 157.267L761.978 155.017L758.88 157.267L760.063 153.627L756.965 151.377H760.794L761.978 147.736Z" fill="#B9BBD0"/>
<path d="M665.521 50.2695L666.704 53.91H670.534L667.436 56.1599L668.619 59.8004L665.521 57.5504L662.423 59.8004L663.606 56.1599L660.508 53.91H664.337L665.521 50.2695Z" fill="#B9BBD0"/>
<path d="M306.578 85.041L307.169 86.8612H309.084L307.535 87.9862L308.127 89.8064L306.578 88.6815L305.029 89.8064L305.62 87.9862L304.071 86.8612H305.986L306.578 85.041Z" fill="#B9BBD0"/>
<path d="M558.523 228.346L559.115 230.166H561.03L559.48 231.291L560.072 233.111L558.523 231.986L556.974 233.111L557.566 231.291L556.017 230.166H557.931L558.523 228.346Z" fill="#B9BBD0"/>
<path d="M603.852 102.955L604.444 104.775H606.359L604.81 105.9L605.401 107.72L603.852 106.596L602.303 107.72L602.895 105.9L601.346 104.775H603.261L603.852 102.955Z" fill="#B9BBD0"/>
<path d="M130.005 293.676L130.596 295.496H132.511L130.962 296.621L131.554 298.441L130.005 297.316L128.455 298.441L129.047 296.621L127.498 295.496H129.413L130.005 293.676Z" fill="#B9BBD0"/>
<path fill-rule="evenodd" clip-rule="evenodd" d="M-106.358 137.58C-95.1405 127.179 -83.7167 113.954 -69.508 112.65C-55.6042 111.375 -47.8904 125.009 -36.5063 131.173C-26.1726 136.768 -11.6522 136.796 -5.95509 147.06C-0.137353 157.542 -4.24978 171.624 -6.89927 184.516C-9.62964 197.803 -13.2151 210.848 -21.4484 222.452C-31.225 236.23 -42.0357 254.34 -57.8314 256.297C-73.8402 258.28 -79.6483 237.765 -93.1385 231.334C-106.17 225.121 -126.058 231.155 -134.566 219.715C-143.291 207.981 -141.085 189.635 -135.734 174.053C-130.701 159.399 -118.115 148.481 -106.358 137.58Z" fill="#E9EAF0" fill-opacity="0.1"/>
<path fill-rule="evenodd" clip-rule="evenodd" d="M717.737 71.5612C725.244 76.4138 734.796 80.1582 735.713 91.702C736.61 102.998 726.727 115.785 722.244 128.311C718.175 139.682 718.128 152.097 710.687 161.63C703.089 171.365 692.904 174.254 683.577 177.853C673.965 181.562 664.529 184.43 656.145 182.674C646.189 180.588 633.101 179.587 631.714 166.986C630.308 154.213 645.168 139.925 649.849 125.478C654.37 111.523 650.039 97.2789 658.336 84.811C666.846 72.0237 680.121 65.5667 691.39 63.053C701.988 60.6891 709.868 66.4751 717.737 71.5612Z" fill="#E9EAF0" fill-opacity="0.1"/>
<path fill-rule="evenodd" clip-rule="evenodd" d="M216.591 83.8972C217.54 75.0113 216.578 64.8006 226.473 58.7788C236.156 52.8862 252.031 55.94 265.238 54.2933C277.226 52.7984 288.335 47.2441 300.202 49.5856C312.321 51.9767 319.492 59.7617 326.911 66.4617C334.555 73.3662 341.371 80.4925 343.581 88.7649C346.206 98.5878 351.213 110.717 340.584 117.635C329.812 124.647 310.354 117.829 295.342 120.165C280.842 122.422 270.074 132.707 255.199 130.924C239.944 129.096 228.194 120.162 220.869 111.24C213.981 102.85 215.596 93.2107 216.591 83.8972Z" fill="#E9EAF0" fill-opacity="0.1"/>
<path fill-rule="evenodd" clip-rule="evenodd" d="M919.675 250.188C923.698 252.653 928.623 254.853 929.984 259.372C931.316 263.794 927.544 267.936 926.367 272.405C925.299 276.461 926.262 281.24 923.414 284.321C920.506 287.468 915.801 287.772 911.568 288.418C907.206 289.084 902.862 289.44 898.661 288.098C893.672 286.504 887.251 285.08 885.578 280.116C883.882 275.085 889.947 270.761 891.067 265.568C892.149 260.551 888.92 254.721 891.949 250.577C895.056 246.327 900.975 244.893 906.235 244.82C911.181 244.75 915.459 247.604 919.675 250.188Z" fill="#E9EAF0" fill-opacity="0.1"/>
<path d="M412.522 119.761C415.111 119.761 417.211 117.662 417.211 115.073C417.211 112.483 415.111 110.385 412.522 110.385C409.932 110.385 407.832 112.483 407.832 115.073C407.832 117.662 409.932 119.761 412.522 119.761Z" stroke="#F5F6F9" stroke-width="2"/>
<path d="M430.969 119.761C433.558 119.761 435.658 117.662 435.658 115.073C435.658 112.483 433.558 110.385 430.969 110.385C428.379 110.385 426.279 112.483 426.279 115.073C426.279 117.662 428.379 119.761 430.969 119.761Z" stroke="#F5F6F9" stroke-width="2"/>
<path d="M407.777 150.107C408.656 154.937 412.943 164.596 423.063 164.596C433.183 164.596 437.645 154.937 438.612 150.107" stroke="white" stroke-width="3" stroke-linecap="round"/>
</g>
<defs>
<linearGradient id="paint0_linear_138_3435" x1="445.86" y1="232.033" x2="436" y2="436" gradientUnits="userSpaceOnUse">
<stop stop-color="#F6F6F9"/>
<stop offset="1" stop-color="#16161D"/>
</linearGradient>
<clipPath id="clip0_138_3435">
<rect width="1440" height="467" fill="white"/>
</clipPath>
</defs>
</svg>
